# xmcd CD database file
#
# Track frame offsets:
#	150
#	14644
#	31440
#	46172
#	66878
#	91421
#	108605
#	130066
#	159290
#	175589
#	192261
#	207515
#	223744
#	259291
#
# Disc length: 3708 seconds
#
# Revision: 7
# Processed by: cddbd v1.5.1PL0 Copyright (c) Steve Scherf et al.
# Submitted via: CDex 1.51
#
DISCID=c90e7a0e
DTITLE=Eric Clapton - Unplugged
DYEAR=1992
DGENRE=Blues
TTITLE0=Signe
TTITLE1=Before You Accuse Me
TTITLE2=Hey Hey
TTITLE3=Tears In Heaven
TTITLE4=Lonely Stranger
TTITLE5=Nobody Knows You When You're Down and Out
TTITLE6=Layla
TTITLE7=Running On Faith
TTITLE8=Walkin' Blues
TTITLE9=Alberta
TTITLE10=San Francisco Bay Blues
TTITLE11=Malted Milk
TTITLE12=Old Love
TTITLE13=Rollin' and Tumblin'
EXTD=produced by russ titelman YEAR: 1992
EXTT0=
EXTT1=
EXTT2=
EXTT3=
EXTT4=
EXTT5=
EXTT6=
EXTT7=
EXTT8=
EXTT9=
EXTT10=
EXTT11=
EXTT12=
EXTT13=
PLAYORDER=
